<?xml version='1.0' encoding='UTF-8' standalone='no'?>
<svg width="1189mm" xmlns:svg="http://www.w3.org/2000/svg" height="841mm" xmlns:rdf="http://www.w3.org/1999/02/22-rdf-syntax-ns#" xmlns:inkscape="http://www.inkscape.org/namespaces/inkscape" version="1.2" xmlns:freecad="http://www.freecadweb.org/wiki/index.php?title=Svg_Namespace" xmlns:sodipodi="http://sodipodi.sourceforge.net/DTD/sodipodi-0.dtd" xmlns="http://www.w3.org/2000/svg" viewBox="0 0 11890 8410" xmlns:cc="http://creativecommons.org/ns#" baseProfile="tiny" xmlns:xlink="http://www.w3.org/1999/xlink" xmlns:dc="http://purl.org/dc/elements/1.1/">
 <title>FreeCAD SVG Export</title>
 <desc>Drawing page: Page001 exported from FreeCAD document: Unnamed</desc>
 <defs/>
 <g inkscape:groupmode="layer" inkscape:label="TechDraw" id="Page001">
  <g fill-rule="evenodd" fill="none" stroke="black" id="DrawingContent" stroke-linejoin="bevel" stroke-linecap="square" stroke-width="1">
   <g transform="matrix(1,0,0,1,3166.81,4563.26)" font-size="29.1042" font-style="normal" fill="#ffffff" fill-opacity="1" stroke="none" font-weight="400" font-family="MS Shell Dlg 2">
    <path fill-rule="evenodd" d="M37.6561,-161.928 C37.8912,-163.139 38.0092,-164.361 38.0092,-165.583 C38.0092,-175.623 30.0951,-184.826 17.4886,-189.446 C4.88205,-194.065 -10.3148,-193.331 -21.9157,-187.542 C-33.5166,-181.753 -39.5871,-171.875 -37.6561,-161.928 C-35.0728,-148.622 -18.9944,-138.707 -3.09582e-14,-138.707 C18.9944,-138.707 35.0728,-148.622 37.6561,-161.928 L29.2169,-118.458 C29.0109,-117.396 28.6937,-116.35 28.2652,-115.319 C25.9815,-109.702 20.1693,-104.773 12.5921,-102.253 C7.87878,-100.657 2.55113,-99.981 -2.65374,-100.322 C-8.34187,-100.681 -13.8584,-102.26 -18.3047,-104.787 C-20.4604,-106.01 -22.337,-107.416 -23.9343,-109.004 C-25.8781,-110.947 -27.3218,-113.052 -28.2652,-115.319 C-28.6936,-116.35 -29.0108,-117.396 -29.2169,-118.458 L-37.6561,-161.928 L-29.2169,-118.458 C-27.2126,-108.134 -14.7375,-100.441 -4.78756e-14,-100.441 C14.7375,-100.441 27.2126,-108.134 29.2169,-118.458 L37.6561,-161.928 C37.8912,-163.139 38.0092,-164.361 38.0092,-165.583 C38.0092,-175.623 30.0951,-184.826 17.4886,-189.446 C4.88205,-194.065 -10.3148,-193.331 -21.9157,-187.542 C-33.5166,-181.753 -39.5871,-171.875 -37.6561,-161.928 C-35.0728,-148.622 -18.9944,-138.707 -3.09582e-14,-138.707 C18.9944,-138.707 35.0728,-148.622 37.6561,-161.928 " vector-effect="non-scaling-stroke"/>
   </g>
   <g transform="matrix(1,0,0,1,3166.81,4563.26)" font-size="29.1042" font-style="normal" fill="none" stroke-opacity="1" stroke="#000000" font-weight="400" stroke-linejoin="bevel" stroke-linecap="square" stroke-width="1" font-family="MS Shell Dlg 2">
    <rect width="0" height="0" y="0" x="0"/>
   </g>
   <g transform="matrix(1,0,0,1,3166.81,4563.26)" font-size="29.1042" font-style="normal" fill="#ffffff" fill-opacity="1" stroke="none" font-weight="400" font-family="MS Shell Dlg 2">
    <path fill-rule="evenodd" d="M29.2169,-118.458 C29.0109,-117.396 28.6937,-116.35 28.2652,-115.319 L27.1305,-61.15 L27.1374,-61.3445 C27.1346,-61.2148 27.1301,-61.0851 27.1236,-60.9555 C26.6113,-50.6246 14.619,-42.437 -6.21994e-14,-42.437 C-14.619,-42.437 -26.6113,-50.6246 -27.1236,-60.9555 C-27.1301,-61.0851 -27.1346,-61.2148 -27.1374,-61.3445 L-27.1305,-61.15 L-28.2652,-115.319 C-28.6936,-116.35 -29.0108,-117.396 -29.2169,-118.458 C-27.2126,-108.134 -14.7375,-100.441 -4.78756e-14,-100.441 C14.7375,-100.441 27.2126,-108.134 29.2169,-118.458 " vector-effect="non-scaling-stroke"/>
   </g>
   <g transform="matrix(1,0,0,1,3166.81,4563.26)" font-size="29.1042" font-style="normal" fill="none" stroke-opacity="1" stroke="#000000" font-weight="400" stroke-linejoin="bevel" stroke-linecap="square" stroke-width="1" font-family="MS Shell Dlg 2">
    <rect width="0" height="0" y="0" x="0"/>
   </g>
   <g transform="matrix(1,0,0,1,3166.81,4563.26)" font-size="29.1042" font-style="normal" fill="#ffffff" fill-opacity="1" stroke="none" font-weight="400" font-family="MS Shell Dlg 2">
    <path fill-rule="evenodd" d="M-27.1236,-60.9555 C-26.6113,-50.6246 -14.619,-42.437 -6.21994e-14,-42.437 C14.619,-42.437 26.6113,-50.6246 27.1236,-60.9555 C27.1301,-61.0851 27.1346,-61.2148 27.1374,-61.3445 L27.1305,-61.15 L28.2652,-115.319 C25.9815,-109.702 20.1693,-104.773 12.5921,-102.253 C7.87878,-100.657 2.55113,-99.981 -2.65374,-100.322 C-8.34187,-100.681 -13.8584,-102.26 -18.3047,-104.787 C-20.4604,-106.01 -22.337,-107.416 -23.9343,-109.004 C-25.8781,-110.947 -27.3218,-113.052 -28.2652,-115.319 L-27.1305,-61.15 L-27.1374,-61.3445 C-27.1346,-61.2148 -27.1301,-61.0851 -27.1236,-60.9555 " vector-effect="non-scaling-stroke"/>
   </g>
   <g transform="matrix(1,0,0,1,3166.81,4563.26)" font-size="29.1042" font-style="normal" fill="none" stroke-opacity="1" stroke="#000000" font-weight="400" stroke-linejoin="bevel" stroke-linecap="square" stroke-width="1" font-family="MS Shell Dlg 2">
    <rect width="0" height="0" y="0" x="0"/>
   </g>
   <g transform="matrix(1,0,0,1,3166.81,4563.26)" font-size="29.1042" font-style="normal" fill="#ffffff" fill-opacity="1" stroke="none" font-weight="400" font-family="MS Shell Dlg 2">
    <path fill-rule="evenodd" d="M37,-165.583 C37,-164.393 36.8851,-163.204 36.6562,-162.025 C36.4315,-160.868 36.0974,-159.722 35.6562,-158.596 C32.169,-149.698 22.3073,-142.759 9.70692,-140.337 C9.02572,-140.206 8.33936,-140.089 7.64867,-139.985 C2.60523,-139.232 -2.60523,-139.232 -7.64867,-139.985 C-8.33936,-140.089 -9.02572,-140.206 -9.70692,-140.337 C-24.0286,-143.09 -34.6378,-151.628 -36.6562,-162.025 C-38.536,-171.708 -32.6267,-181.324 -21.3338,-186.959 C-10.0409,-192.595 4.75243,-193.309 17.0242,-188.812 C29.2961,-184.315 37,-175.357 37,-165.583 " vector-effect="non-scaling-stroke"/>
   </g>
   <g transform="matrix(1,0,0,1,3166.81,4563.26)" font-size="29.1042" font-style="normal" fill="none" stroke-opacity="1" stroke="#000000" font-weight="400" stroke-linejoin="bevel" stroke-linecap="square" stroke-width="1" font-family="MS Shell Dlg 2">
    <rect width="0" height="0" y="0" x="0"/>
   </g>
   <g transform="matrix(1,0,0,1,3166.81,4563.26)" font-size="29.1042" font-style="normal" fill="#ffffff" fill-opacity="1" stroke="none" font-weight="400" font-family="MS Shell Dlg 2">
    <path fill-rule="evenodd" d="M35.6562,-158.596 L37,-165.583 C37,-175.357 29.2961,-184.315 17.0242,-188.812 C4.75243,-193.309 -10.0409,-192.595 -21.3338,-186.959 C-32.6267,-181.324 -38.536,-171.708 -36.6562,-162.025 C-34.6378,-151.628 -24.0286,-143.09 -9.70692,-140.337 C-3.43506,-141.943 3.43506,-141.943 9.70692,-140.337 C22.3073,-142.759 32.169,-149.698 35.6562,-158.596 " vector-effect="non-scaling-stroke"/>
   </g>
   <g transform="matrix(1,0,0,1,3166.81,4563.26)" font-size="29.1042" font-style="normal" fill="none" stroke-opacity="1" stroke="#000000" font-weight="400" stroke-linejoin="bevel" stroke-linecap="square" stroke-width="1" font-family="MS Shell Dlg 2">
    <rect width="0" height="0" y="0" x="0"/>
   </g>
   <g transform="matrix(1,0,0,1,3166.81,4563.26)" font-size="29.1042" font-style="normal" fill="#ffffff" fill-opacity="1" stroke="none" font-weight="400" font-family="MS Shell Dlg 2">
    <path fill-rule="evenodd" d="M-7.64867,-139.985 C-8.33936,-140.089 -9.02572,-140.206 -9.70692,-140.337 C-3.43506,-141.943 3.43506,-141.943 9.70692,-140.337 C9.02572,-140.206 8.33936,-140.089 7.64867,-139.985 C2.65305,-141.013 -2.65305,-141.013 -7.64867,-139.985 " vector-effect="non-scaling-stroke"/>
   </g>
   <g transform="matrix(1,0,0,1,3166.81,4563.26)" font-size="29.1042" font-style="normal" fill="none" stroke-opacity="1" stroke="#000000" font-weight="400" stroke-linejoin="bevel" stroke-linecap="square" stroke-width="1" font-family="MS Shell Dlg 2">
    <rect width="0" height="0" y="0" x="0"/>
   </g>
   <g transform="matrix(1,0,0,1,3166.81,4563.26)" font-size="29.1042" font-style="normal" fill="#ffffff" fill-opacity="1" stroke="none" font-weight="400" font-family="MS Shell Dlg 2">
    <path fill-rule="evenodd" d="M-7.64867,-139.985 C-2.65305,-141.013 2.65305,-141.013 7.64867,-139.985 C2.60523,-139.232 -2.60523,-139.232 -7.64867,-139.985 " vector-effect="non-scaling-stroke"/>
   </g>
   <g transform="matrix(1,0,0,1,3166.81,4563.26)" font-size="29.1042" font-style="normal" fill="none" stroke-opacity="1" stroke="#000000" font-weight="400" stroke-linejoin="bevel" stroke-linecap="square" stroke-width="1" font-family="MS Shell Dlg 2">
    <rect width="0" height="0" y="0" x="0"/>
   </g>
   <g transform="matrix(1,0,0,1,3166.81,4563.26)" font-size="29.1042" font-style="normal" fill="#ffffff" fill-opacity="1" stroke="none" font-weight="400" font-family="MS Shell Dlg 2">
    <path fill-rule="evenodd" d="M5.48291,188.303 C5.27396,190.335 2.88145,191.909 -1.97561e-13,191.909 C-2.88145,191.909 -5.27396,190.335 -5.48291,188.303 C-5.43886,188.744 -5.30288,189.175 -5.07497,189.597 C-4.72703,190.246 -4.16454,190.806 -3.38749,191.277 C-2.45213,191.833 -1.22597,192.157 0.00792878,192.152 C1.23995,192.154 2.46284,191.828 3.39525,191.272 C3.78018,191.043 4.11393,190.786 4.39648,190.499 C5.04735,189.818 5.40949,189.086 5.48291,188.303 " vector-effect="non-scaling-stroke"/>
   </g>
   <g transform="matrix(1,0,0,1,3166.81,4563.26)" font-size="29.1042" font-style="normal" fill="none" stroke-opacity="1" stroke="#000000" font-weight="400" stroke-linejoin="bevel" stroke-linecap="square" stroke-width="1" font-family="MS Shell Dlg 2">
    <rect width="0" height="0" y="0" x="0"/>
   </g>
   <g transform="matrix(1,0,0,1,3166.81,4563.26)" font-size="29.1042" font-style="normal" fill="#ffffff" fill-opacity="1" stroke="none" font-weight="400" font-family="MS Shell Dlg 2">
    <path fill-rule="evenodd" d="M5.48291,188.303 L16.1304,84.7523 L5.48291,188.303 C5.27396,190.335 2.88145,191.909 -1.97561e-13,191.909 C-2.88145,191.909 -5.27396,190.335 -5.48291,188.303 L-16.1304,84.7523 L-5.48291,188.303 C-5.43886,188.744 -5.30288,189.175 -5.07497,189.597 C-4.72703,190.246 -4.16454,190.806 -3.38749,191.277 C-2.45213,191.833 -1.22597,192.157 0.00792878,192.152 C1.23995,192.154 2.46284,191.828 3.39525,191.272 C3.78018,191.043 4.11393,190.786 4.39648,190.499 C5.04735,189.818 5.40949,189.086 5.48291,188.303 " vector-effect="non-scaling-stroke"/>
   </g>
   <g transform="matrix(1,0,0,1,3166.81,4563.26)" font-size="29.1042" font-style="normal" fill="none" stroke-opacity="1" stroke="#000000" font-weight="400" stroke-linejoin="bevel" stroke-linecap="square" stroke-width="1" font-family="MS Shell Dlg 2">
    <rect width="0" height="0" y="0" x="0"/>
   </g>
   <g transform="matrix(1,0,0,1,3166.81,4563.26)" font-size="29.1042" font-style="normal" fill="#ffffff" fill-opacity="1" stroke="none" font-weight="400" font-family="MS Shell Dlg 2">
    <path fill-rule="evenodd" d="M37,-165.583 C37,-164.393 36.8851,-163.204 36.6562,-162.025 C36.4315,-160.868 36.0974,-159.722 35.6562,-158.596 L37,-165.583" vector-effect="non-scaling-stroke"/>
   </g>
   <g transform="matrix(1,0,0,1,3166.81,4563.26)" font-size="29.1042" font-style="normal" fill="none" stroke-opacity="1" stroke="#000000" font-weight="400" stroke-linejoin="bevel" stroke-linecap="square" stroke-width="1" font-family="MS Shell Dlg 2">
    <rect width="0" height="0" y="0" x="0"/>
   </g>
   <g transform="matrix(1,0,0,1,3166.81,4563.26)" font-size="29.1042" font-style="normal" fill="#ffffff" fill-opacity="1" stroke="none" font-weight="400" font-family="MS Shell Dlg 2">
    <path fill-rule="evenodd" d="M16.133,84.7261 L24.244,-3.12087 L16.133,84.7261 L16.1391,84.6629 C16.1365,84.691 16.1338,84.7191 16.1309,84.7472 C15.5162,90.7258 8.47732,95.3542 -1.38134e-13,95.3542 C-8.47732,95.3542 -15.5162,90.7258 -16.1309,84.7472 C-16.1338,84.7191 -16.1365,84.691 -16.1391,84.6629 L-16.135,84.705 L-24.244,-3.12087 L-16.135,84.705 L-16.1391,84.6629 C-16.1365,84.691 -16.1338,84.7191 -16.1309,84.7472 C-15.5162,90.7258 -8.47732,95.3542 -1.38134e-13,95.3542 C8.47732,95.3542 15.5162,90.7258 16.1309,84.7472 C16.1338,84.7191 16.1365,84.691 16.1391,84.6629 " vector-effect="non-scaling-stroke"/>
   </g>
   <g transform="matrix(1,0,0,1,3166.81,4563.26)" font-size="29.1042" font-style="normal" fill="none" stroke-opacity="1" stroke="#000000" font-weight="400" stroke-linejoin="bevel" stroke-linecap="square" stroke-width="1" font-family="MS Shell Dlg 2">
    <rect width="0" height="0" y="0" x="0"/>
   </g>
   <g transform="matrix(1,0,0,1,3166.81,4563.26)" font-size="29.1042" font-style="normal" fill="#ffffff" fill-opacity="1" stroke="none" font-weight="400" font-family="MS Shell Dlg 2">
    <path fill-rule="evenodd" d="M24.2546,-3.27128 L27.1231,-60.9411 L24.2546,-3.27128 L24.2822,-3.65911 C24.2736,-3.48662 24.2614,-3.31423 24.2455,-3.142 C23.4113,5.89286 12.8044,12.9194 -1.05566e-13,12.9194 C-12.8044,12.9194 -23.4113,5.89286 -24.2455,-3.142 C-24.2614,-3.31423 -24.2736,-3.48662 -24.2822,-3.65911 L-24.2638,-3.40055 L-27.1231,-60.9411 L-24.2638,-3.40055 L-24.2822,-3.65911 C-24.2736,-3.48662 -24.2614,-3.31423 -24.2455,-3.142 C-23.4113,5.89286 -12.8044,12.9194 -1.05566e-13,12.9194 C12.8044,12.9194 23.4113,5.89286 24.2455,-3.142 C24.2614,-3.31423 24.2736,-3.48662 24.2822,-3.65911 " vector-effect="non-scaling-stroke"/>
   </g>
   <g transform="matrix(1,0,0,1,3166.81,4563.26)" font-size="29.1042" font-style="normal" fill="none" stroke-opacity="1" stroke="#000000" font-weight="400" stroke-linejoin="bevel" stroke-linecap="square" stroke-width="1" font-family="MS Shell Dlg 2">
    <rect width="0" height="0" y="0" x="0"/>
   </g>
   <g transform="matrix(1,0,0,1,3166.81,4563.26)" font-size="29.1042" font-style="normal" fill="none" stroke-opacity="1" stroke="#000000" font-weight="400" stroke-linejoin="bevel" stroke-linecap="round" stroke-width="7" font-family="MS Shell Dlg 2">
    <path fill-rule="evenodd" d="M38.0092,-165.583 C38.0092,-175.623 30.0951,-184.826 17.4886,-189.446 C4.88205,-194.065 -10.3148,-193.331 -21.9157,-187.542 C-33.5166,-181.753 -39.5871,-171.875 -37.6561,-161.928 " vector-effect="none"/>
   </g>
   <g transform="matrix(1,0,0,1,3166.81,4563.26)" font-size="29.1042" font-style="normal" fill="none" stroke-opacity="1" stroke="#000000" font-weight="400" stroke-linejoin="bevel" stroke-linecap="round" stroke-width="7" font-family="MS Shell Dlg 2">
    <path fill-rule="evenodd" d="M-37.6561,-161.928 C-35.0728,-148.622 -18.9944,-138.707 -3.09582e-14,-138.707 C18.9944,-138.707 35.0728,-148.622 37.6561,-161.928 " vector-effect="none"/>
   </g>
   <g transform="matrix(1,0,0,1,3166.81,4563.26)" font-size="29.1042" font-style="normal" fill="none" stroke-opacity="1" stroke="#000000" font-weight="400" stroke-linejoin="bevel" stroke-linecap="round" stroke-width="7" font-family="MS Shell Dlg 2">
    <path fill-rule="evenodd" d="M37.6561,-161.928 C37.8912,-163.139 38.0092,-164.361 38.0092,-165.583 " vector-effect="none"/>
   </g>
   <g transform="matrix(1,0,0,1,3166.81,4563.26)" font-size="29.1042" font-style="normal" fill="none" stroke-opacity="1" stroke="#000000" font-weight="400" stroke-linejoin="bevel" stroke-linecap="round" stroke-width="7" font-family="MS Shell Dlg 2">
    <path fill-rule="evenodd" d="M-7.64867,-139.985 C-2.65305,-141.013 2.65305,-141.013 7.64867,-139.985 " vector-effect="none"/>
   </g>
   <g transform="matrix(1,0,0,1,3166.81,4563.26)" font-size="29.1042" font-style="normal" fill="none" stroke-opacity="1" stroke="#000000" font-weight="400" stroke-linejoin="bevel" stroke-linecap="round" stroke-width="7" font-family="MS Shell Dlg 2">
    <path fill-rule="evenodd" d="M-9.70692,-140.337 C-3.43506,-141.943 3.43506,-141.943 9.70692,-140.337 " vector-effect="none"/>
   </g>
   <g transform="matrix(1,0,0,1,3166.81,4563.26)" font-size="29.1042" font-style="normal" fill="none" stroke-opacity="1" stroke="#000000" font-weight="400" stroke-linejoin="bevel" stroke-linecap="round" stroke-width="7" font-family="MS Shell Dlg 2">
    <path fill-rule="evenodd" d="M37,-165.583 C37,-164.393 36.8851,-163.204 36.6562,-162.025 " vector-effect="none"/>
   </g>
   <g transform="matrix(1,0,0,1,3166.81,4563.26)" font-size="29.1042" font-style="normal" fill="none" stroke-opacity="1" stroke="#000000" font-weight="400" stroke-linejoin="bevel" stroke-linecap="round" stroke-width="7" font-family="MS Shell Dlg 2">
    <path fill-rule="evenodd" d="M36.6562,-162.025 C34.1416,-149.072 18.49,-139.42 5.27029e-16,-139.42 C-18.49,-139.42 -34.1416,-149.072 -36.6562,-162.025 " vector-effect="none"/>
   </g>
   <g transform="matrix(1,0,0,1,3166.81,4563.26)" font-size="29.1042" font-style="normal" fill="none" stroke-opacity="1" stroke="#000000" font-weight="400" stroke-linejoin="bevel" stroke-linecap="round" stroke-width="7" font-family="MS Shell Dlg 2">
    <path fill-rule="evenodd" d="M-36.6562,-162.025 C-38.536,-171.708 -32.6267,-181.324 -21.3338,-186.959 C-10.0409,-192.595 4.75243,-193.309 17.0242,-188.812 C29.2961,-184.315 37,-175.357 37,-165.583 " vector-effect="none"/>
   </g>
   <g transform="matrix(1,0,0,1,3166.81,4563.26)" font-size="29.1042" font-style="normal" fill="none" stroke-opacity="1" stroke="#000000" font-weight="400" stroke-linejoin="bevel" stroke-linecap="round" stroke-width="7" font-family="MS Shell Dlg 2">
    <path fill-rule="evenodd" d="M5.48291,188.303 C5.40949,189.086 5.04735,189.818 4.39648,190.499 C4.11393,190.786 3.78018,191.043 3.39525,191.272 C2.46284,191.828 1.23995,192.154 0.00792878,192.152 C-1.22597,192.157 -2.45213,191.833 -3.38749,191.277 C-4.16454,190.806 -4.72703,190.246 -5.07497,189.597 C-5.30288,189.175 -5.43886,188.744 -5.48291,188.303 " vector-effect="none"/>
   </g>
   <g transform="matrix(1,0,0,1,3166.81,4563.26)" font-size="29.1042" font-style="normal" fill="none" stroke-opacity="1" stroke="#000000" font-weight="400" stroke-linejoin="bevel" stroke-linecap="round" stroke-width="7" font-family="MS Shell Dlg 2">
    <path fill-rule="evenodd" d="M-5.48291,188.303 L-16.1304,84.7523" vector-effect="none"/>
   </g>
   <g transform="matrix(1,0,0,1,3166.81,4563.26)" font-size="29.1042" font-style="normal" fill="none" stroke-opacity="1" stroke="#000000" font-weight="400" stroke-linejoin="bevel" stroke-linecap="round" stroke-width="7" font-family="MS Shell Dlg 2">
    <path fill-rule="evenodd" d="M5.48291,188.303 L16.1304,84.7523" vector-effect="none"/>
   </g>
   <g transform="matrix(1,0,0,1,3166.81,4563.26)" font-size="29.1042" font-style="normal" fill="none" stroke-opacity="1" stroke="#000000" font-weight="400" stroke-linejoin="bevel" stroke-linecap="round" stroke-width="7" font-family="MS Shell Dlg 2">
    <path fill-rule="evenodd" d="M-16.1391,84.6629 L-24.244,-3.12087" vector-effect="none"/>
   </g>
   <g transform="matrix(1,0,0,1,3166.81,4563.26)" font-size="29.1042" font-style="normal" fill="none" stroke-opacity="1" stroke="#000000" font-weight="400" stroke-linejoin="bevel" stroke-linecap="round" stroke-width="7" font-family="MS Shell Dlg 2">
    <path fill-rule="evenodd" d="M16.1391,84.6629 L24.244,-3.12087" vector-effect="none"/>
   </g>
   <g transform="matrix(1,0,0,1,3166.81,4563.26)" font-size="29.1042" font-style="normal" fill="none" stroke-opacity="1" stroke="#000000" font-weight="400" stroke-linejoin="bevel" stroke-linecap="round" stroke-width="7" font-family="MS Shell Dlg 2">
    <path fill-rule="evenodd" d="M-24.2822,-3.65911 L-27.1231,-60.9411" vector-effect="none"/>
   </g>
   <g transform="matrix(1,0,0,1,3166.81,4563.26)" font-size="29.1042" font-style="normal" fill="none" stroke-opacity="1" stroke="#000000" font-weight="400" stroke-linejoin="bevel" stroke-linecap="round" stroke-width="7" font-family="MS Shell Dlg 2">
    <path fill-rule="evenodd" d="M24.2822,-3.65911 L27.1231,-60.9411" vector-effect="none"/>
   </g>
   <g transform="matrix(1,0,0,1,3166.81,4563.26)" font-size="29.1042" font-style="normal" fill="none" stroke-opacity="1" stroke="#000000" font-weight="400" stroke-linejoin="bevel" stroke-linecap="round" stroke-width="7" font-family="MS Shell Dlg 2">
    <path fill-rule="evenodd" d="M-27.1374,-61.3445 L-28.2652,-115.319" vector-effect="none"/>
   </g>
   <g transform="matrix(1,0,0,1,3166.81,4563.26)" font-size="29.1042" font-style="normal" fill="none" stroke-opacity="1" stroke="#000000" font-weight="400" stroke-linejoin="bevel" stroke-linecap="round" stroke-width="7" font-family="MS Shell Dlg 2">
    <path fill-rule="evenodd" d="M27.1374,-61.3445 L28.2652,-115.319" vector-effect="none"/>
   </g>
   <g transform="matrix(1,0,0,1,3166.81,4563.26)" font-size="29.1042" font-style="normal" fill="none" stroke-opacity="1" stroke="#000000" font-weight="400" stroke-linejoin="bevel" stroke-linecap="round" stroke-width="7" font-family="MS Shell Dlg 2">
    <path fill-rule="evenodd" d="M29.2169,-118.458 C28.5437,-114.962 26.6207,-111.564 23.6177,-108.695 C20.7679,-105.959 16.9473,-103.718 12.5921,-102.253 C7.87878,-100.657 2.55113,-99.981 -2.65374,-100.322 C-8.34187,-100.681 -13.8584,-102.26 -18.3047,-104.787 C-20.4604,-106.01 -22.337,-107.416 -23.9343,-109.004 C-26.7573,-111.807 -28.5671,-115.086 -29.2169,-118.458 " vector-effect="none"/>
   </g>
   <g transform="matrix(1,0,0,1,3166.81,4563.26)" font-size="29.1042" font-style="normal" fill="none" stroke-opacity="1" stroke="#000000" font-weight="400" stroke-linejoin="bevel" stroke-linecap="round" stroke-width="7" font-family="MS Shell Dlg 2">
    <path fill-rule="evenodd" d="M-29.2169,-118.458 L-37.6561,-161.928" vector-effect="none"/>
   </g>
   <g transform="matrix(1,0,0,1,3166.81,4563.26)" font-size="29.1042" font-style="normal" fill="none" stroke-opacity="1" stroke="#000000" font-weight="400" stroke-linejoin="bevel" stroke-linecap="round" stroke-width="7" font-family="MS Shell Dlg 2">
    <path fill-rule="evenodd" d="M29.2169,-118.458 L37.6561,-161.928" vector-effect="none"/>
   </g>
   <g transform="matrix(1,0,0,1,3166.81,4563.26)" font-size="29.1042" font-style="normal" fill="none" stroke-opacity="1" stroke="#000000" font-weight="400" stroke-linejoin="bevel" stroke-linecap="round" stroke-width="7" font-family="MS Shell Dlg 2">
    <path fill-rule="evenodd" d="M5.48291,188.303 C5.27396,190.335 2.88145,191.909 -1.97561e-13,191.909 C-2.88145,191.909 -5.27396,190.335 -5.48291,188.303 " vector-effect="none"/>
   </g>
   <g transform="matrix(1,0,0,1,3166.81,4563.26)" font-size="29.1042" font-style="normal" fill="none" stroke-opacity="1" stroke="#000000" font-weight="400" stroke-linejoin="bevel" stroke-linecap="round" stroke-width="7" font-family="MS Shell Dlg 2">
    <path fill-rule="evenodd" d="M16.1391,84.6629 C16.1365,84.691 16.1338,84.7191 16.1309,84.7472 " vector-effect="none"/>
   </g>
   <g transform="matrix(1,0,0,1,3166.81,4563.26)" font-size="29.1042" font-style="normal" fill="none" stroke-opacity="1" stroke="#000000" font-weight="400" stroke-linejoin="bevel" stroke-linecap="round" stroke-width="7" font-family="MS Shell Dlg 2">
    <path fill-rule="evenodd" d="M16.1309,84.7472 C15.5162,90.7258 8.47732,95.3542 -1.38134e-13,95.3542 C-8.47732,95.3542 -15.5162,90.7258 -16.1309,84.7472 " vector-effect="none"/>
   </g>
   <g transform="matrix(1,0,0,1,3166.81,4563.26)" font-size="29.1042" font-style="normal" fill="none" stroke-opacity="1" stroke="#000000" font-weight="400" stroke-linejoin="bevel" stroke-linecap="round" stroke-width="7" font-family="MS Shell Dlg 2">
    <path fill-rule="evenodd" d="M-16.1309,84.7472 C-16.1338,84.7191 -16.1365,84.691 -16.1391,84.6629 " vector-effect="none"/>
   </g>
   <g transform="matrix(1,0,0,1,3166.81,4563.26)" font-size="29.1042" font-style="normal" fill="none" stroke-opacity="1" stroke="#000000" font-weight="400" stroke-linejoin="bevel" stroke-linecap="round" stroke-width="7" font-family="MS Shell Dlg 2">
    <path fill-rule="evenodd" d="M24.2822,-3.65911 C24.2736,-3.48662 24.2614,-3.31423 24.2455,-3.142 " vector-effect="none"/>
   </g>
   <g transform="matrix(1,0,0,1,3166.81,4563.26)" font-size="29.1042" font-style="normal" fill="none" stroke-opacity="1" stroke="#000000" font-weight="400" stroke-linejoin="bevel" stroke-linecap="round" stroke-width="7" font-family="MS Shell Dlg 2">
    <path fill-rule="evenodd" d="M24.2455,-3.142 C23.4113,5.89286 12.8044,12.9194 -1.05566e-13,12.9194 C-12.8044,12.9194 -23.4113,5.89286 -24.2455,-3.142 " vector-effect="none"/>
   </g>
   <g transform="matrix(1,0,0,1,3166.81,4563.26)" font-size="29.1042" font-style="normal" fill="none" stroke-opacity="1" stroke="#000000" font-weight="400" stroke-linejoin="bevel" stroke-linecap="round" stroke-width="7" font-family="MS Shell Dlg 2">
    <path fill-rule="evenodd" d="M-24.2455,-3.142 C-24.2614,-3.31423 -24.2736,-3.48662 -24.2822,-3.65911 " vector-effect="none"/>
   </g>
   <g transform="matrix(1,0,0,1,3166.81,4563.26)" font-size="29.1042" font-style="normal" fill="none" stroke-opacity="1" stroke="#000000" font-weight="400" stroke-linejoin="bevel" stroke-linecap="round" stroke-width="7" font-family="MS Shell Dlg 2">
    <path fill-rule="evenodd" d="M27.1374,-61.3445 C27.1346,-61.2148 27.1301,-61.0851 27.1236,-60.9555 " vector-effect="none"/>
   </g>
   <g transform="matrix(1,0,0,1,3166.81,4563.26)" font-size="29.1042" font-style="normal" fill="none" stroke-opacity="1" stroke="#000000" font-weight="400" stroke-linejoin="bevel" stroke-linecap="round" stroke-width="7" font-family="MS Shell Dlg 2">
    <path fill-rule="evenodd" d="M27.1236,-60.9555 C26.6113,-50.6246 14.619,-42.437 -6.21994e-14,-42.437 C-14.619,-42.437 -26.6113,-50.6246 -27.1236,-60.9555 " vector-effect="none"/>
   </g>
   <g transform="matrix(1,0,0,1,3166.81,4563.26)" font-size="29.1042" font-style="normal" fill="none" stroke-opacity="1" stroke="#000000" font-weight="400" stroke-linejoin="bevel" stroke-linecap="round" stroke-width="7" font-family="MS Shell Dlg 2">
    <path fill-rule="evenodd" d="M-27.1236,-60.9555 C-27.1301,-61.0851 -27.1346,-61.2148 -27.1374,-61.3445 " vector-effect="none"/>
   </g>
   <g transform="matrix(1,0,0,1,3166.81,4563.26)" font-size="29.1042" font-style="normal" fill="none" stroke-opacity="1" stroke="#000000" font-weight="400" stroke-linejoin="bevel" stroke-linecap="round" stroke-width="7" font-family="MS Shell Dlg 2">
    <path fill-rule="evenodd" d="M29.2169,-118.458 C27.2126,-108.134 14.7375,-100.441 -4.13273e-14,-100.441 C-14.7375,-100.441 -27.2126,-108.134 -29.2169,-118.458 " vector-effect="none"/>
   </g>
   <g transform="matrix(1,0,0,1,3166.81,4563.26)" font-size="29.1042" font-style="normal" fill="none" stroke-opacity="1" stroke="#000000" font-weight="400" stroke-linejoin="bevel" stroke-linecap="round" stroke-width="7" font-family="MS Shell Dlg 2">
    <path fill-rule="evenodd" d="M35.6562,-158.596 L37,-165.583" vector-effect="none"/>
   </g>
  </g>
 </g>
</svg>
