<?xml version='1.0' encoding='UTF-8' standalone='no'?>
<svg height="297mm" xmlns:rdf="http://www.w3.org/1999/02/22-rdf-syntax-ns#" viewBox="0 0 2100 2970" width="210mm" xmlns:cc="http://creativecommons.org/ns#" xmlns:inkscape="http://www.inkscape.org/namespaces/inkscape" xmlns:sodipodi="http://sodipodi.sourceforge.net/DTD/sodipodi-0.dtd" xmlns:xlink="http://www.w3.org/1999/xlink" xmlns:dc="http://purl.org/dc/elements/1.1/" version="1.2" xmlns:svg="http://www.w3.org/2000/svg" xmlns:freecad="http://www.freecadweb.org/wiki/index.php?title=Svg_Namespace" baseProfile="tiny" xmlns="http://www.w3.org/2000/svg">
 <title>FreeCAD SVG Export</title>
 <desc>Drawing page: Page exported from FreeCAD document: Unnamed</desc>
 <defs/>
 <g inkscape:groupmode="layer" id="Page" inkscape:label="TechDraw">
  <g fill="none" stroke-linecap="square" id="DrawingContent" fill-rule="evenodd" stroke-width="1" stroke-linejoin="bevel" stroke="black">
   <g fill="#ffffff" fill-opacity="1" font-weight="400" font-style="normal" font-family="MS Shell Dlg 2" font-size="29.1042" stroke="none" transform="matrix(1,0,0,1,356.888,708.179)">
    <path vector-effect="non-scaling-stroke" fill-rule="evenodd" d="M-188.729,-31.9042 C-188.729,-92.0826 -104.232,-140.867 1.41588e-13,-140.867 C104.232,-140.867 188.729,-92.0826 188.729,-31.9042 L188.729,31.9042 C188.729,60.8029 168.845,88.5179 133.451,108.952 C79.4754,140.116 -1.70027,149.438 -72.2234,132.573 C-142.747,115.707 -188.729,75.9755 -188.729,31.9042 L-188.729,-31.9042"/>
   </g>
   <g fill="none" font-weight="400" stroke-linecap="square" font-style="normal" stroke-opacity="1" stroke-width="1" font-family="MS Shell Dlg 2" stroke-linejoin="bevel" font-size="29.1042" stroke="#000000" transform="matrix(1,0,0,1,356.888,708.179)">
    <rect height="0" width="0" x="0" y="0"/>
   </g>
   <g fill="#ffffff" fill-opacity="1" font-weight="400" font-style="normal" font-family="MS Shell Dlg 2" font-size="29.1042" stroke="none" transform="matrix(1,0,0,1,356.888,708.179)">
    <path vector-effect="non-scaling-stroke" fill-rule="evenodd" d="M188.729,-31.9042 C188.729,-3.00546 168.845,24.7096 133.451,45.1441 C79.4754,76.3072 -1.70027,85.6296 -72.2234,68.7642 C-142.747,51.8989 -188.729,12.1671 -188.729,-31.9042 C-188.729,-92.0826 -104.232,-140.867 1.41588e-13,-140.867 C104.232,-140.867 188.729,-92.0826 188.729,-31.9042 "/>
   </g>
   <g fill="none" font-weight="400" stroke-linecap="square" font-style="normal" stroke-opacity="1" stroke-width="1" font-family="MS Shell Dlg 2" stroke-linejoin="bevel" font-size="29.1042" stroke="#000000" transform="matrix(1,0,0,1,356.888,708.179)">
    <rect height="0" width="0" x="0" y="0"/>
   </g>
   <g fill="#ffffff" fill-opacity="1" font-weight="400" font-style="normal" font-family="MS Shell Dlg 2" font-size="29.1042" stroke="none" transform="matrix(1,0,0,1,356.888,708.179)">
    <path vector-effect="non-scaling-stroke" fill-rule="evenodd" d="M133.451,45.1441 L133.451,108.952 C79.4754,140.116 -1.70027,149.438 -72.2234,132.573 C-142.747,115.707 -188.729,75.9755 -188.729,31.9042 L-188.729,-31.9042 C-188.729,12.1671 -142.747,51.8989 -72.2234,68.7642 C-1.70027,85.6296 79.4754,76.3072 133.451,45.1441 "/>
   </g>
   <g fill="none" font-weight="400" stroke-linecap="square" font-style="normal" stroke-opacity="1" stroke-width="1" font-family="MS Shell Dlg 2" stroke-linejoin="bevel" font-size="29.1042" stroke="#000000" transform="matrix(1,0,0,1,356.888,708.179)">
    <rect height="0" width="0" x="0" y="0"/>
   </g>
   <g fill="#ffffff" fill-opacity="1" font-weight="400" font-style="normal" font-family="MS Shell Dlg 2" font-size="29.1042" stroke="none" transform="matrix(1,0,0,1,356.888,708.179)">
    <path vector-effect="non-scaling-stroke" fill-rule="evenodd" d="M188.729,-31.9042 L188.729,31.9042 C188.729,60.8029 168.845,88.5179 133.451,108.952 L133.451,45.1441 C168.845,24.7096 188.729,-3.00546 188.729,-31.9042 "/>
   </g>
   <g fill="none" font-weight="400" stroke-linecap="square" font-style="normal" stroke-opacity="1" stroke-width="1" font-family="MS Shell Dlg 2" stroke-linejoin="bevel" font-size="29.1042" stroke="#000000" transform="matrix(1,0,0,1,356.888,708.179)">
    <rect height="0" width="0" x="0" y="0"/>
   </g>
   <g fill="none" font-weight="400" stroke-linecap="round" font-style="normal" stroke-opacity="1" stroke-width="7" font-family="MS Shell Dlg 2" stroke-linejoin="bevel" font-size="29.1042" stroke="#000000" transform="matrix(1,0,0,1,356.888,708.179)">
    <path vector-effect="none" fill-rule="evenodd" d="M133.451,45.1441 C79.4754,76.3072 -1.70027,85.6296 -72.2234,68.7642 C-142.747,51.8989 -188.729,12.1671 -188.729,-31.9042 "/>
   </g>
   <g fill="none" font-weight="400" stroke-linecap="round" font-style="normal" stroke-opacity="1" stroke-width="7" font-family="MS Shell Dlg 2" stroke-linejoin="bevel" font-size="29.1042" stroke="#000000" transform="matrix(1,0,0,1,356.888,708.179)">
    <path vector-effect="none" fill-rule="evenodd" d="M-188.729,-31.9042 C-188.729,-92.0826 -104.232,-140.867 1.41588e-13,-140.867 C104.232,-140.867 188.729,-92.0826 188.729,-31.9042 "/>
   </g>
   <g fill="none" font-weight="400" stroke-linecap="round" font-style="normal" stroke-opacity="1" stroke-width="7" font-family="MS Shell Dlg 2" stroke-linejoin="bevel" font-size="29.1042" stroke="#000000" transform="matrix(1,0,0,1,356.888,708.179)">
    <path vector-effect="none" fill-rule="evenodd" d="M188.729,-31.9042 C188.729,-3.00546 168.845,24.7096 133.451,45.1441 "/>
   </g>
   <g fill="none" font-weight="400" stroke-linecap="round" font-style="normal" stroke-opacity="1" stroke-width="7" font-family="MS Shell Dlg 2" stroke-linejoin="bevel" font-size="29.1042" stroke="#000000" transform="matrix(1,0,0,1,356.888,708.179)">
    <path vector-effect="none" fill-rule="evenodd" d="M133.451,108.952 C79.4754,140.116 -1.70027,149.438 -72.2234,132.573 C-142.747,115.707 -188.729,75.9755 -188.729,31.9042 "/>
   </g>
   <g fill="none" font-weight="400" stroke-linecap="round" font-style="normal" stroke-opacity="1" stroke-width="7" font-family="MS Shell Dlg 2" stroke-linejoin="bevel" font-size="29.1042" stroke="#000000" transform="matrix(1,0,0,1,356.888,708.179)">
    <path vector-effect="none" fill-rule="evenodd" d="M188.729,31.9042 C188.729,60.8029 168.845,88.5179 133.451,108.952 "/>
   </g>
   <g fill="none" font-weight="400" stroke-linecap="round" font-style="normal" stroke-opacity="1" stroke-width="7" font-family="MS Shell Dlg 2" stroke-linejoin="bevel" font-size="29.1042" stroke="#000000" transform="matrix(1,0,0,1,356.888,708.179)">
    <path vector-effect="none" fill-rule="evenodd" d="M-188.729,-31.9042 L-188.729,31.9042"/>
   </g>
   <g fill="none" font-weight="400" stroke-linecap="round" font-style="normal" stroke-opacity="1" stroke-width="7" font-family="MS Shell Dlg 2" stroke-linejoin="bevel" font-size="29.1042" stroke="#000000" transform="matrix(1,0,0,1,356.888,708.179)">
    <path vector-effect="none" fill-rule="evenodd" d="M188.729,-31.9042 L188.729,31.9042"/>
   </g>
   <g fill="none" font-weight="400" stroke-linecap="round" font-style="normal" stroke-opacity="1" stroke-width="7" font-family="MS Shell Dlg 2" stroke-linejoin="bevel" font-size="29.1042" stroke="#000000" transform="matrix(1,0,0,1,356.888,708.179)">
    <path vector-effect="none" fill-rule="evenodd" d="M133.451,45.1441 L133.451,108.952"/>
   </g>
   <g fill="#ffffff" fill-opacity="1" font-weight="400" font-style="normal" font-family="MS Shell Dlg 2" font-size="29.1042" stroke="none" transform="matrix(1,0,0,1,895.975,1300.84)">
    <path vector-effect="non-scaling-stroke" fill-rule="evenodd" d="M177.8,0 C177.8,98.1962 98.1962,177.8 0,177.8 C-98.1962,177.8 -177.8,98.1962 -177.8,0 C-177.8,-98.1962 -98.1962,-177.8 0,-177.8 C98.1962,-177.8 177.8,-98.1962 177.8,0 "/>
   </g>
   <g fill="none" font-weight="400" stroke-linecap="square" font-style="normal" stroke-opacity="1" stroke-width="1" font-family="MS Shell Dlg 2" stroke-linejoin="bevel" font-size="29.1042" stroke="#000000" transform="matrix(1,0,0,1,895.975,1300.84)">
    <rect height="0" width="0" x="0" y="0"/>
   </g>
   <g fill="#ffffff" fill-opacity="1" font-weight="400" font-style="normal" font-family="MS Shell Dlg 2" font-size="29.1042" stroke="none" transform="matrix(1,0,0,1,895.975,1300.84)">
    <path vector-effect="non-scaling-stroke" fill-rule="evenodd" d="M175,0 C175,96.6498 96.6498,175 0,175 C-96.6498,175 -175,96.6498 -175,0 C-175,-96.6498 -96.6498,-175 0,-175 C96.6498,-175 175,-96.6498 175,0 "/>
   </g>
   <g fill="none" font-weight="400" stroke-linecap="square" font-style="normal" stroke-opacity="1" stroke-width="1" font-family="MS Shell Dlg 2" stroke-linejoin="bevel" font-size="29.1042" stroke="#000000" transform="matrix(1,0,0,1,895.975,1300.84)">
    <rect height="0" width="0" x="0" y="0"/>
   </g>
   <g fill="#ffffff" fill-opacity="1" font-weight="400" font-style="normal" font-family="MS Shell Dlg 2" font-size="29.1042" stroke="none" transform="matrix(1,0,0,1,895.975,1300.84)">
    <path vector-effect="non-scaling-stroke" fill-rule="evenodd" d="M80,0 C80,44.1828 44.1828,80 0,80 C-44.1828,80 -80,44.1828 -80,0 C-80,-44.1828 -44.1828,-80 0,-80 C44.1828,-80 80,-44.1828 80,0 "/>
   </g>
   <g fill="none" font-weight="400" stroke-linecap="square" font-style="normal" stroke-opacity="1" stroke-width="1" font-family="MS Shell Dlg 2" stroke-linejoin="bevel" font-size="29.1042" stroke="#000000" transform="matrix(1,0,0,1,895.975,1300.84)">
    <rect height="0" width="0" x="0" y="0"/>
   </g>
   <g fill="none" font-weight="400" stroke-linecap="round" font-style="normal" stroke-opacity="1" stroke-width="7" font-family="MS Shell Dlg 2" stroke-linejoin="bevel" font-size="29.1042" stroke="#000000" transform="matrix(1,0,0,1,895.975,1300.84)">
    <path vector-effect="none" fill-rule="evenodd" d="M177.8,0 C177.8,98.1962 98.1962,177.8 0,177.8 C-98.1962,177.8 -177.8,98.1962 -177.8,0 C-177.8,-98.1962 -98.1962,-177.8 0,-177.8 C98.1962,-177.8 177.8,-98.1962 177.8,0 "/>
   </g>
   <g fill="none" font-weight="400" stroke-linecap="round" font-style="normal" stroke-opacity="1" stroke-width="7" font-family="MS Shell Dlg 2" stroke-linejoin="bevel" font-size="29.1042" stroke="#000000" transform="matrix(1,0,0,1,895.975,1300.84)">
    <path vector-effect="none" fill-rule="evenodd" d="M175,0 C175,96.6498 96.6498,175 0,175 C-96.6498,175 -175,96.6498 -175,0 C-175,-96.6498 -96.6498,-175 0,-175 C96.6498,-175 175,-96.6498 175,0 "/>
   </g>
   <g fill="none" font-weight="400" stroke-linecap="round" font-style="normal" stroke-opacity="1" stroke-width="7" font-family="MS Shell Dlg 2" stroke-linejoin="bevel" font-size="29.1042" stroke="#000000" transform="matrix(1,0,0,1,895.975,1300.84)">
    <path vector-effect="none" fill-rule="evenodd" d="M80,0 C80,44.1828 44.1828,80 0,80 C-44.1828,80 -80,44.1828 -80,0 C-80,-44.1828 -44.1828,-80 0,-80 C44.1828,-80 80,-44.1828 80,0 "/>
   </g>
   <g fill="#ffffff" fill-opacity="1" font-weight="400" font-style="normal" font-family="MS Shell Dlg 2" font-size="29.1042" stroke="none" transform="matrix(1,0,0,1,360.237,1270.7)">
    <path vector-effect="non-scaling-stroke" fill-rule="evenodd" d="M177.8,-44.5807 C177.8,-71.8059 159.068,-97.9161 125.724,-117.167 C74.8731,-146.526 -1.60181,-155.308 -68.0411,-139.42 C-134.48,-123.531 -177.8,-86.0999 -177.8,-44.5807 L-177.8,44.5807 L-177.8,-44.5807 C-177.8,12.1129 -98.1962,58.0722 -3.26613e-14,58.0722 C98.1962,58.0722 177.8,12.1129 177.8,-44.5807 C177.8,-71.8059 159.068,-97.9161 125.724,-117.167 C74.8731,-146.526 -1.60181,-155.308 -68.0411,-139.42 C-134.48,-123.531 -177.8,-86.0999 -177.8,-44.5807 C-177.8,12.1129 -98.1962,58.0722 -3.26613e-14,58.0722 C98.1962,58.0722 177.8,12.1129 177.8,-44.5807 L177.8,44.5807 C177.8,101.274 98.1962,147.234 -2.85924e-14,147.234 C-98.1962,147.234 -177.8,101.274 -177.8,44.5807 C-177.8,101.274 -98.1962,147.234 -3.26613e-14,147.234 C98.1962,147.234 177.8,101.274 177.8,44.5807 L177.8,-44.5807"/>
   </g>
   <g fill="none" font-weight="400" stroke-linecap="square" font-style="normal" stroke-opacity="1" stroke-width="1" font-family="MS Shell Dlg 2" stroke-linejoin="bevel" font-size="29.1042" stroke="#000000" transform="matrix(1,0,0,1,360.237,1270.7)">
    <rect height="0" width="0" x="0" y="0"/>
   </g>
   <g fill="#ffffff" fill-opacity="1" font-weight="400" font-style="normal" font-family="MS Shell Dlg 2" font-size="29.1042" stroke="none" transform="matrix(1,0,0,1,360.237,1270.7)">
    <path vector-effect="non-scaling-stroke" fill-rule="evenodd" d="M175,-44.5807 C175,-31.0904 170.321,-17.7367 161.238,-5.30723 C144.857,17.1106 115.014,35.3626 77.1924,46.0951 C28.5119,59.9091 -28.5119,59.9091 -77.1924,46.0951 C-115.014,35.3626 -144.857,17.1106 -161.238,-5.30723 C-170.321,-17.7367 -175,-31.0904 -175,-44.5807 C-175,-85.4461 -132.363,-122.288 -66.9696,-137.926 C-1.57658,-153.565 73.694,-144.92 123.744,-116.024 C156.563,-97.0762 175,-71.3772 175,-44.5807 "/>
   </g>
   <g fill="none" font-weight="400" stroke-linecap="square" font-style="normal" stroke-opacity="1" stroke-width="1" font-family="MS Shell Dlg 2" stroke-linejoin="bevel" font-size="29.1042" stroke="#000000" transform="matrix(1,0,0,1,360.237,1270.7)">
    <rect height="0" width="0" x="0" y="0"/>
   </g>
   <g fill="#ffffff" fill-opacity="1" font-weight="400" font-style="normal" font-family="MS Shell Dlg 2" font-size="29.1042" stroke="none" transform="matrix(1,0,0,1,360.237,1270.7)">
    <path vector-effect="non-scaling-stroke" fill-rule="evenodd" d="M123.744,-37.4772 L123.744,-116.024 C73.694,-144.92 -1.57658,-153.565 -66.9696,-137.926 C-132.363,-122.288 -175,-85.4461 -175,-44.5807 C-175,-31.0904 -170.321,-17.7367 -161.238,-5.30723 C-138.598,-36.2904 -90.7426,-58.7398 -33.5804,-65.1925 C23.5819,-71.6452 82.5585,-61.2555 123.744,-37.4772 "/>
   </g>
   <g fill="none" font-weight="400" stroke-linecap="square" font-style="normal" stroke-opacity="1" stroke-width="1" font-family="MS Shell Dlg 2" stroke-linejoin="bevel" font-size="29.1042" stroke="#000000" transform="matrix(1,0,0,1,360.237,1270.7)">
    <rect height="0" width="0" x="0" y="0"/>
   </g>
   <g fill="#ffffff" fill-opacity="1" font-weight="400" font-style="normal" font-family="MS Shell Dlg 2" font-size="29.1042" stroke="none" transform="matrix(1,0,0,1,360.237,1270.7)">
    <path vector-effect="non-scaling-stroke" fill-rule="evenodd" d="M161.238,-5.30723 C152.455,-17.3276 139.722,-28.2521 123.744,-37.4772 C82.5585,-61.2555 23.5819,-71.6452 -33.5804,-65.1925 C-90.7426,-58.7398 -138.598,-36.2904 -161.238,-5.30723 C-144.857,17.1106 -115.014,35.3626 -77.1924,46.0951 C-78.3594,43.6194 -79.1671,41.0918 -79.607,38.5386 C-79.8689,37.0192 -80,35.4932 -80,33.9663 C-80,15.2849 -60.5086,-1.55688 -30.6147,-8.70591 C-0.720723,-15.8549 33.6887,-11.9033 56.5685,1.30639 C71.5715,9.96833 80,21.7164 80,33.9663 C80,35.4932 79.8689,37.0192 79.607,38.5386 C79.1671,41.0918 78.3594,43.6194 77.1924,46.0951 C115.014,35.3626 144.857,17.1106 161.238,-5.30723 "/>
   </g>
   <g fill="none" font-weight="400" stroke-linecap="square" font-style="normal" stroke-opacity="1" stroke-width="1" font-family="MS Shell Dlg 2" stroke-linejoin="bevel" font-size="29.1042" stroke="#000000" transform="matrix(1,0,0,1,360.237,1270.7)">
    <rect height="0" width="0" x="0" y="0"/>
   </g>
   <g fill="#ffffff" fill-opacity="1" font-weight="400" font-style="normal" font-family="MS Shell Dlg 2" font-size="29.1042" stroke="none" transform="matrix(1,0,0,1,360.237,1270.7)">
    <path vector-effect="non-scaling-stroke" fill-rule="evenodd" d="M77.1924,46.0951 C78.3594,43.6194 79.1671,41.0918 79.607,38.5386 C77.7775,27.9208 69.6369,17.9962 56.5685,10.4512 C34.7058,-2.17129 2.20212,-6.39019 -26.9142,-0.384678 C-56.0305,5.62083 -76.5463,20.7755 -79.607,38.5386 C-79.1671,41.0918 -78.3594,43.6194 -77.1924,46.0951 C-28.5119,59.9091 28.5119,59.9091 77.1924,46.0951 "/>
   </g>
   <g fill="none" font-weight="400" stroke-linecap="square" font-style="normal" stroke-opacity="1" stroke-width="1" font-family="MS Shell Dlg 2" stroke-linejoin="bevel" font-size="29.1042" stroke="#000000" transform="matrix(1,0,0,1,360.237,1270.7)">
    <rect height="0" width="0" x="0" y="0"/>
   </g>
   <g fill="#ffffff" fill-opacity="1" font-weight="400" font-style="normal" font-family="MS Shell Dlg 2" font-size="29.1042" stroke="none" transform="matrix(1,0,0,1,360.237,1270.7)">
    <path vector-effect="non-scaling-stroke" fill-rule="evenodd" d="M175,-44.5807 C175,-31.0904 170.321,-17.7367 161.238,-5.30723 C152.455,-17.3276 139.722,-28.2521 123.744,-37.4772 L123.744,-116.024 C156.563,-97.0762 175,-71.3772 175,-44.5807 "/>
   </g>
   <g fill="none" font-weight="400" stroke-linecap="square" font-style="normal" stroke-opacity="1" stroke-width="1" font-family="MS Shell Dlg 2" stroke-linejoin="bevel" font-size="29.1042" stroke="#000000" transform="matrix(1,0,0,1,360.237,1270.7)">
    <rect height="0" width="0" x="0" y="0"/>
   </g>
   <g fill="#ffffff" fill-opacity="1" font-weight="400" font-style="normal" font-family="MS Shell Dlg 2" font-size="29.1042" stroke="none" transform="matrix(1,0,0,1,360.237,1270.7)">
    <path vector-effect="non-scaling-stroke" fill-rule="evenodd" d="M56.5685,10.4512 L56.5685,1.30639 C33.6887,-11.9033 -0.720723,-15.8549 -30.6147,-8.70591 C-60.5086,-1.55688 -80,15.2849 -80,33.9663 C-80,35.4932 -79.8689,37.0192 -79.607,38.5386 C-76.5463,20.7755 -56.0305,5.62083 -26.9142,-0.384678 C2.20212,-6.39019 34.7058,-2.17129 56.5685,10.4512 "/>
   </g>
   <g fill="none" font-weight="400" stroke-linecap="square" font-style="normal" stroke-opacity="1" stroke-width="1" font-family="MS Shell Dlg 2" stroke-linejoin="bevel" font-size="29.1042" stroke="#000000" transform="matrix(1,0,0,1,360.237,1270.7)">
    <rect height="0" width="0" x="0" y="0"/>
   </g>
   <g fill="#ffffff" fill-opacity="1" font-weight="400" font-style="normal" font-family="MS Shell Dlg 2" font-size="29.1042" stroke="none" transform="matrix(1,0,0,1,360.237,1270.7)">
    <path vector-effect="non-scaling-stroke" fill-rule="evenodd" d="M79.607,38.5386 C79.8689,37.0192 80,35.4932 80,33.9663 C80,21.7164 71.5715,9.96833 56.5685,1.30639 L56.5685,10.4512 C69.6369,17.9962 77.7775,27.9208 79.607,38.5386 "/>
   </g>
   <g fill="none" font-weight="400" stroke-linecap="square" font-style="normal" stroke-opacity="1" stroke-width="1" font-family="MS Shell Dlg 2" stroke-linejoin="bevel" font-size="29.1042" stroke="#000000" transform="matrix(1,0,0,1,360.237,1270.7)">
    <rect height="0" width="0" x="0" y="0"/>
   </g>
   <g fill="none" font-weight="400" stroke-linecap="round" font-style="normal" stroke-opacity="1" stroke-width="7" font-family="MS Shell Dlg 2" stroke-linejoin="bevel" font-size="29.1042" stroke="#000000" transform="matrix(1,0,0,1,360.237,1270.7)">
    <path vector-effect="none" fill-rule="evenodd" d="M-177.8,44.5807 C-177.8,101.274 -98.1962,147.234 -3.26613e-14,147.234 C98.1962,147.234 177.8,101.274 177.8,44.5807 "/>
   </g>
   <g fill="none" font-weight="400" stroke-linecap="round" font-style="normal" stroke-opacity="1" stroke-width="7" font-family="MS Shell Dlg 2" stroke-linejoin="bevel" font-size="29.1042" stroke="#000000" transform="matrix(1,0,0,1,360.237,1270.7)">
    <path vector-effect="none" fill-rule="evenodd" d="M125.724,-117.167 C74.8731,-146.526 -1.60181,-155.308 -68.0411,-139.42 C-134.48,-123.531 -177.8,-86.0999 -177.8,-44.5807 "/>
   </g>
   <g fill="none" font-weight="400" stroke-linecap="round" font-style="normal" stroke-opacity="1" stroke-width="7" font-family="MS Shell Dlg 2" stroke-linejoin="bevel" font-size="29.1042" stroke="#000000" transform="matrix(1,0,0,1,360.237,1270.7)">
    <path vector-effect="none" fill-rule="evenodd" d="M-177.8,-44.5807 C-177.8,12.1129 -98.1962,58.0722 -3.26613e-14,58.0722 C98.1962,58.0722 177.8,12.1129 177.8,-44.5807 "/>
   </g>
   <g fill="none" font-weight="400" stroke-linecap="round" font-style="normal" stroke-opacity="1" stroke-width="7" font-family="MS Shell Dlg 2" stroke-linejoin="bevel" font-size="29.1042" stroke="#000000" transform="matrix(1,0,0,1,360.237,1270.7)">
    <path vector-effect="none" fill-rule="evenodd" d="M177.8,-44.5807 C177.8,-71.8059 159.068,-97.9161 125.724,-117.167 "/>
   </g>
   <g fill="none" font-weight="400" stroke-linecap="round" font-style="normal" stroke-opacity="1" stroke-width="7" font-family="MS Shell Dlg 2" stroke-linejoin="bevel" font-size="29.1042" stroke="#000000" transform="matrix(1,0,0,1,360.237,1270.7)">
    <path vector-effect="none" fill-rule="evenodd" d="M123.744,-116.024 C156.563,-97.0762 175,-71.3772 175,-44.5807 "/>
   </g>
   <g fill="none" font-weight="400" stroke-linecap="round" font-style="normal" stroke-opacity="1" stroke-width="7" font-family="MS Shell Dlg 2" stroke-linejoin="bevel" font-size="29.1042" stroke="#000000" transform="matrix(1,0,0,1,360.237,1270.7)">
    <path vector-effect="none" fill-rule="evenodd" d="M175,-44.5807 C175,11.2201 96.6498,56.4556 -4.26597e-14,56.4556 C-96.6498,56.4556 -175,11.2201 -175,-44.5807 "/>
   </g>
   <g fill="none" font-weight="400" stroke-linecap="round" font-style="normal" stroke-opacity="1" stroke-width="7" font-family="MS Shell Dlg 2" stroke-linejoin="bevel" font-size="29.1042" stroke="#000000" transform="matrix(1,0,0,1,360.237,1270.7)">
    <path vector-effect="none" fill-rule="evenodd" d="M-175,-44.5807 C-175,-85.4461 -132.363,-122.288 -66.9696,-137.926 C-1.57658,-153.565 73.694,-144.92 123.744,-116.024 "/>
   </g>
   <g fill="none" font-weight="400" stroke-linecap="round" font-style="normal" stroke-opacity="1" stroke-width="7" font-family="MS Shell Dlg 2" stroke-linejoin="bevel" font-size="29.1042" stroke="#000000" transform="matrix(1,0,0,1,360.237,1270.7)">
    <path vector-effect="none" fill-rule="evenodd" d="M123.744,-37.4772 C82.5585,-61.2555 23.5819,-71.6452 -33.5804,-65.1925 C-90.7426,-58.7398 -138.598,-36.2904 -161.238,-5.30723 "/>
   </g>
   <g fill="none" font-weight="400" stroke-linecap="round" font-style="normal" stroke-opacity="1" stroke-width="7" font-family="MS Shell Dlg 2" stroke-linejoin="bevel" font-size="29.1042" stroke="#000000" transform="matrix(1,0,0,1,360.237,1270.7)">
    <path vector-effect="none" fill-rule="evenodd" d="M161.238,-5.30723 C152.455,-17.3276 139.722,-28.2521 123.744,-37.4772 "/>
   </g>
   <g fill="none" font-weight="400" stroke-linecap="round" font-style="normal" stroke-opacity="1" stroke-width="7" font-family="MS Shell Dlg 2" stroke-linejoin="bevel" font-size="29.1042" stroke="#000000" transform="matrix(1,0,0,1,360.237,1270.7)">
    <path vector-effect="none" fill-rule="evenodd" d="M56.5685,1.30639 C33.6887,-11.9033 -0.720723,-15.8549 -30.6147,-8.70591 C-60.5086,-1.55688 -80,15.2849 -80,33.9663 "/>
   </g>
   <g fill="none" font-weight="400" stroke-linecap="round" font-style="normal" stroke-opacity="1" stroke-width="7" font-family="MS Shell Dlg 2" stroke-linejoin="bevel" font-size="29.1042" stroke="#000000" transform="matrix(1,0,0,1,360.237,1270.7)">
    <path vector-effect="none" fill-rule="evenodd" d="M-80,33.9663 C-80,38.0632 -79.0559,42.142 -77.1924,46.0951 "/>
   </g>
   <g fill="none" font-weight="400" stroke-linecap="round" font-style="normal" stroke-opacity="1" stroke-width="7" font-family="MS Shell Dlg 2" stroke-linejoin="bevel" font-size="29.1042" stroke="#000000" transform="matrix(1,0,0,1,360.237,1270.7)">
    <path vector-effect="none" fill-rule="evenodd" d="M77.1924,46.0951 C79.0559,42.142 80,38.0632 80,33.9663 "/>
   </g>
   <g fill="none" font-weight="400" stroke-linecap="round" font-style="normal" stroke-opacity="1" stroke-width="7" font-family="MS Shell Dlg 2" stroke-linejoin="bevel" font-size="29.1042" stroke="#000000" transform="matrix(1,0,0,1,360.237,1270.7)">
    <path vector-effect="none" fill-rule="evenodd" d="M80,33.9663 C80,21.7164 71.5715,9.96833 56.5685,1.30639 "/>
   </g>
   <g fill="none" font-weight="400" stroke-linecap="round" font-style="normal" stroke-opacity="1" stroke-width="7" font-family="MS Shell Dlg 2" stroke-linejoin="bevel" font-size="29.1042" stroke="#000000" transform="matrix(1,0,0,1,360.237,1270.7)">
    <path vector-effect="none" fill-rule="evenodd" d="M56.5685,10.4512 C34.7058,-2.17129 2.20212,-6.39019 -26.9142,-0.384678 C-56.0305,5.62083 -76.5463,20.7755 -79.607,38.5386 "/>
   </g>
   <g fill="none" font-weight="400" stroke-linecap="round" font-style="normal" stroke-opacity="1" stroke-width="7" font-family="MS Shell Dlg 2" stroke-linejoin="bevel" font-size="29.1042" stroke="#000000" transform="matrix(1,0,0,1,360.237,1270.7)">
    <path vector-effect="none" fill-rule="evenodd" d="M79.607,38.5386 C77.7775,27.9208 69.6369,17.9962 56.5685,10.4512 "/>
   </g>
   <g fill="none" font-weight="400" stroke-linecap="round" font-style="normal" stroke-opacity="1" stroke-width="7" font-family="MS Shell Dlg 2" stroke-linejoin="bevel" font-size="29.1042" stroke="#000000" transform="matrix(1,0,0,1,360.237,1270.7)">
    <path vector-effect="none" fill-rule="evenodd" d="M-177.8,-44.5807 L-177.8,44.5807"/>
   </g>
   <g fill="none" font-weight="400" stroke-linecap="round" font-style="normal" stroke-opacity="1" stroke-width="7" font-family="MS Shell Dlg 2" stroke-linejoin="bevel" font-size="29.1042" stroke="#000000" transform="matrix(1,0,0,1,360.237,1270.7)">
    <path vector-effect="none" fill-rule="evenodd" d="M177.8,-44.5807 L177.8,44.5807"/>
   </g>
   <g fill="none" font-weight="400" stroke-linecap="round" font-style="normal" stroke-opacity="1" stroke-width="7" font-family="MS Shell Dlg 2" stroke-linejoin="bevel" font-size="29.1042" stroke="#000000" transform="matrix(1,0,0,1,360.237,1270.7)">
    <path vector-effect="none" fill-rule="evenodd" d="M123.744,-37.4772 L123.744,-116.024"/>
   </g>
   <g fill="none" font-weight="400" stroke-linecap="round" font-style="normal" stroke-opacity="1" stroke-width="7" font-family="MS Shell Dlg 2" stroke-linejoin="bevel" font-size="29.1042" stroke="#000000" transform="matrix(1,0,0,1,360.237,1270.7)">
    <path vector-effect="none" fill-rule="evenodd" d="M56.5685,10.4512 L56.5685,1.30639"/>
   </g>
   <g fill="#ffffff" fill-opacity="1" font-weight="400" font-style="normal" font-family="MS Shell Dlg 2" font-size="29.1042" stroke="none" transform="matrix(1,0,0,1,895.975,714.876)">
    <path vector-effect="non-scaling-stroke" fill-rule="evenodd" d="M-188.729,31.9042 C-188.729,60.8029 -168.845,88.5179 -133.451,108.952 C-79.4754,140.116 1.70027,149.438 72.2234,132.573 C142.747,115.707 188.729,75.9755 188.729,31.9042 L188.729,-31.9042 C188.729,-92.0826 104.232,-140.867 6.3331e-14,-140.867 C-104.232,-140.867 -188.729,-92.0826 -188.729,-31.9042 C-188.729,-3.00546 -168.845,24.7096 -133.451,45.1441 C-79.4754,76.3072 1.70027,85.6296 72.2234,68.7642 C142.747,51.8989 188.729,12.1671 188.729,-31.9042 C188.729,-92.0826 104.232,-140.867 6.3331e-14,-140.867 C-104.232,-140.867 -188.729,-92.0826 -188.729,-31.9042 C-188.729,-3.00546 -168.845,24.7096 -133.451,45.1441 L-133.451,108.952 C-168.845,88.5179 -188.729,60.8029 -188.729,31.9042 L-188.729,-31.9042 L-188.729,31.9042"/>
   </g>
   <g fill="none" font-weight="400" stroke-linecap="square" font-style="normal" stroke-opacity="1" stroke-width="1" font-family="MS Shell Dlg 2" stroke-linejoin="bevel" font-size="29.1042" stroke="#000000" transform="matrix(1,0,0,1,895.975,714.876)">
    <rect height="0" width="0" x="0" y="0"/>
   </g>
   <g fill="#ffffff" fill-opacity="1" font-weight="400" font-style="normal" font-family="MS Shell Dlg 2" font-size="29.1042" stroke="none" transform="matrix(1,0,0,1,895.975,714.876)">
    <path vector-effect="non-scaling-stroke" fill-rule="evenodd" d="M174.626,-2.85774 C179.338,-12.3001 181.729,-22.0778 181.729,-31.9042 C181.729,-89.8506 100.366,-136.825 6.1505e-14,-136.825 C-100.366,-136.825 -181.729,-89.8506 -181.729,-31.9042 C-181.729,-22.0778 -179.338,-12.3001 -174.626,-2.85774 C-166.114,14.2008 -150.244,29.7335 -128.502,42.2863 C-83.0216,68.5443 -16.8888,78.9667 45.3912,69.6915 C107.671,60.4163 156.82,32.8253 174.626,-2.85774 "/>
   </g>
   <g fill="none" font-weight="400" stroke-linecap="square" font-style="normal" stroke-opacity="1" stroke-width="1" font-family="MS Shell Dlg 2" stroke-linejoin="bevel" font-size="29.1042" stroke="#000000" transform="matrix(1,0,0,1,895.975,714.876)">
    <rect height="0" width="0" x="0" y="0"/>
   </g>
   <g fill="#ffffff" fill-opacity="1" font-weight="400" font-style="normal" font-family="MS Shell Dlg 2" font-size="29.1042" stroke="none" transform="matrix(1,0,0,1,895.975,714.876)">
    <path vector-effect="non-scaling-stroke" fill-rule="evenodd" d="M-128.502,42.2863 C-83.0216,68.5443 -16.8888,78.9667 45.3912,69.6915 C107.671,60.4163 156.82,32.8253 174.626,-2.85774 C152.205,-47.7897 80.9899,-78.7325 4.34686e-14,-78.7325 C-80.9899,-78.7325 -152.205,-47.7897 -174.626,-2.85774 C-166.114,14.2008 -150.244,29.7335 -128.502,42.2863 "/>
   </g>
   <g fill="none" font-weight="400" stroke-linecap="square" font-style="normal" stroke-opacity="1" stroke-width="1" font-family="MS Shell Dlg 2" stroke-linejoin="bevel" font-size="29.1042" stroke="#000000" transform="matrix(1,0,0,1,895.975,714.876)">
    <rect height="0" width="0" x="0" y="0"/>
   </g>
   <g fill="#ffffff" fill-opacity="1" font-weight="400" font-style="normal" font-family="MS Shell Dlg 2" font-size="29.1042" stroke="none" transform="matrix(1,0,0,1,895.975,714.876)">
    <path vector-effect="non-scaling-stroke" fill-rule="evenodd" d="M174.626,-2.85774 C179.338,-12.3001 181.729,-22.0778 181.729,-31.9042 C181.729,-89.8506 100.366,-136.825 6.1505e-14,-136.825 C-100.366,-136.825 -181.729,-89.8506 -181.729,-31.9042 C-181.729,-22.0778 -179.338,-12.3001 -174.626,-2.85774 C-152.205,-47.7897 -80.9899,-78.7325 3.11666e-15,-78.7325 C80.9899,-78.7325 152.205,-47.7897 174.626,-2.85774 "/>
   </g>
   <g fill="none" font-weight="400" stroke-linecap="square" font-style="normal" stroke-opacity="1" stroke-width="1" font-family="MS Shell Dlg 2" stroke-linejoin="bevel" font-size="29.1042" stroke="#000000" transform="matrix(1,0,0,1,895.975,714.876)">
    <rect height="0" width="0" x="0" y="0"/>
   </g>
   <g fill="#ffffff" fill-opacity="1" font-weight="400" font-style="normal" font-family="MS Shell Dlg 2" font-size="29.1042" stroke="none" transform="matrix(1,0,0,1,895.975,714.876)">
    <path vector-effect="non-scaling-stroke" fill-rule="evenodd" d="M-133.451,108.952 C-79.4754,140.116 1.70027,149.438 72.2234,132.573 C142.747,115.707 188.729,75.9755 188.729,31.9042 L188.729,-31.9042 C188.729,12.1671 142.747,51.8989 72.2234,68.7642 C1.70027,85.6296 -79.4754,76.3072 -133.451,45.1441 L-133.451,108.952"/>
   </g>
   <g fill="none" font-weight="400" stroke-linecap="square" font-style="normal" stroke-opacity="1" stroke-width="1" font-family="MS Shell Dlg 2" stroke-linejoin="bevel" font-size="29.1042" stroke="#000000" transform="matrix(1,0,0,1,895.975,714.876)">
    <rect height="0" width="0" x="0" y="0"/>
   </g>
   <g fill="none" font-weight="400" stroke-linecap="round" font-style="normal" stroke-opacity="1" stroke-width="7" font-family="MS Shell Dlg 2" stroke-linejoin="bevel" font-size="29.1042" stroke="#000000" transform="matrix(1,0,0,1,895.975,714.876)">
    <path vector-effect="none" fill-rule="evenodd" d="M-133.451,108.952 C-79.4754,140.116 1.70027,149.438 72.2234,132.573 C142.747,115.707 188.729,75.9755 188.729,31.9042 "/>
   </g>
   <g fill="none" font-weight="400" stroke-linecap="round" font-style="normal" stroke-opacity="1" stroke-width="7" font-family="MS Shell Dlg 2" stroke-linejoin="bevel" font-size="29.1042" stroke="#000000" transform="matrix(1,0,0,1,895.975,714.876)">
    <path vector-effect="none" fill-rule="evenodd" d="M-188.729,31.9042 C-188.729,60.8029 -168.845,88.5179 -133.451,108.952 "/>
   </g>
   <g fill="none" font-weight="400" stroke-linecap="round" font-style="normal" stroke-opacity="1" stroke-width="7" font-family="MS Shell Dlg 2" stroke-linejoin="bevel" font-size="29.1042" stroke="#000000" transform="matrix(1,0,0,1,895.975,714.876)">
    <path vector-effect="none" fill-rule="evenodd" d="M-133.451,45.1441 C-79.4754,76.3072 1.70027,85.6296 72.2234,68.7642 C142.747,51.8989 188.729,12.1671 188.729,-31.9042 "/>
   </g>
   <g fill="none" font-weight="400" stroke-linecap="round" font-style="normal" stroke-opacity="1" stroke-width="7" font-family="MS Shell Dlg 2" stroke-linejoin="bevel" font-size="29.1042" stroke="#000000" transform="matrix(1,0,0,1,895.975,714.876)">
    <path vector-effect="none" fill-rule="evenodd" d="M188.729,-31.9042 C188.729,-92.0826 104.232,-140.867 6.3331e-14,-140.867 C-104.232,-140.867 -188.729,-92.0826 -188.729,-31.9042 "/>
   </g>
   <g fill="none" font-weight="400" stroke-linecap="round" font-style="normal" stroke-opacity="1" stroke-width="7" font-family="MS Shell Dlg 2" stroke-linejoin="bevel" font-size="29.1042" stroke="#000000" transform="matrix(1,0,0,1,895.975,714.876)">
    <path vector-effect="none" fill-rule="evenodd" d="M-188.729,-31.9042 C-188.729,-3.00546 -168.845,24.7096 -133.451,45.1441 "/>
   </g>
   <g fill="none" font-weight="400" stroke-linecap="round" font-style="normal" stroke-opacity="1" stroke-width="7" font-family="MS Shell Dlg 2" stroke-linejoin="bevel" font-size="29.1042" stroke="#000000" transform="matrix(1,0,0,1,895.975,714.876)">
    <path vector-effect="none" fill-rule="evenodd" d="M-128.502,42.2863 C-76.5276,72.2936 1.6372,81.2702 69.5446,65.0304 C137.452,48.7906 181.729,10.5325 181.729,-31.9042 "/>
   </g>
   <g fill="none" font-weight="400" stroke-linecap="round" font-style="normal" stroke-opacity="1" stroke-width="7" font-family="MS Shell Dlg 2" stroke-linejoin="bevel" font-size="29.1042" stroke="#000000" transform="matrix(1,0,0,1,895.975,714.876)">
    <path vector-effect="none" fill-rule="evenodd" d="M181.729,-31.9042 C181.729,-89.8506 100.366,-136.825 6.1505e-14,-136.825 C-100.366,-136.825 -181.729,-89.8506 -181.729,-31.9042 "/>
   </g>
   <g fill="none" font-weight="400" stroke-linecap="round" font-style="normal" stroke-opacity="1" stroke-width="7" font-family="MS Shell Dlg 2" stroke-linejoin="bevel" font-size="29.1042" stroke="#000000" transform="matrix(1,0,0,1,895.975,714.876)">
    <path vector-effect="none" fill-rule="evenodd" d="M-181.729,-31.9042 C-181.729,-4.07732 -162.583,22.6098 -128.502,42.2863 "/>
   </g>
   <g fill="none" font-weight="400" stroke-linecap="round" font-style="normal" stroke-opacity="1" stroke-width="7" font-family="MS Shell Dlg 2" stroke-linejoin="bevel" font-size="29.1042" stroke="#000000" transform="matrix(1,0,0,1,895.975,714.876)">
    <path vector-effect="none" fill-rule="evenodd" d="M174.626,-2.85774 C152.205,-47.7897 80.9899,-78.7325 4.34686e-14,-78.7325 C-80.9899,-78.7325 -152.205,-47.7897 -174.626,-2.85774 "/>
   </g>
   <g fill="none" font-weight="400" stroke-linecap="round" font-style="normal" stroke-opacity="1" stroke-width="7" font-family="MS Shell Dlg 2" stroke-linejoin="bevel" font-size="29.1042" stroke="#000000" transform="matrix(1,0,0,1,895.975,714.876)">
    <path vector-effect="none" fill-rule="evenodd" d="M188.729,31.9042 L188.729,-31.9042"/>
   </g>
   <g fill="none" font-weight="400" stroke-linecap="round" font-style="normal" stroke-opacity="1" stroke-width="7" font-family="MS Shell Dlg 2" stroke-linejoin="bevel" font-size="29.1042" stroke="#000000" transform="matrix(1,0,0,1,895.975,714.876)">
    <path vector-effect="none" fill-rule="evenodd" d="M-188.729,31.9042 L-188.729,-31.9042"/>
   </g>
   <g fill="none" font-weight="400" stroke-linecap="round" font-style="normal" stroke-opacity="1" stroke-width="7" font-family="MS Shell Dlg 2" stroke-linejoin="bevel" font-size="29.1042" stroke="#000000" transform="matrix(1,0,0,1,895.975,714.876)">
    <path vector-effect="none" fill-rule="evenodd" d="M-133.451,108.952 L-133.451,45.1441"/>
   </g>
   <g fill="#ffffff" fill-opacity="1" font-weight="400" font-style="normal" font-family="MS Shell Dlg 2" font-size="29.1042" stroke="none" transform="matrix(1,0,0,1,370.282,1786.35)">
    <path vector-effect="non-scaling-stroke" fill-rule="evenodd" d="M177.355,44.0593 L177.355,-44.0593 C177.355,-100.611 97.9507,-146.455 1.254e-13,-146.455 C-97.9507,-146.455 -177.355,-100.611 -177.355,-44.0593 L-177.355,44.0593 C-177.355,85.4747 -134.144,122.812 -67.871,138.661 C-1.5978,154.51 74.6859,145.749 125.409,116.464 C158.67,97.2613 177.355,71.2164 177.355,44.0593 "/>
   </g>
   <g fill="none" font-weight="400" stroke-linecap="square" font-style="normal" stroke-opacity="1" stroke-width="1" font-family="MS Shell Dlg 2" stroke-linejoin="bevel" font-size="29.1042" stroke="#000000" transform="matrix(1,0,0,1,370.282,1786.35)">
    <rect height="0" width="0" x="0" y="0"/>
   </g>
   <g fill="#ffffff" fill-opacity="1" font-weight="400" font-style="normal" font-family="MS Shell Dlg 2" font-size="29.1042" stroke="none" transform="matrix(1,0,0,1,370.282,1786.35)">
    <path vector-effect="non-scaling-stroke" fill-rule="evenodd" d="M177.355,-44.0593 C177.355,-16.9021 158.67,9.14275 125.409,28.3458 C74.6859,57.6309 -1.5978,66.3915 -67.871,50.5425 C-134.144,34.6935 -177.355,-2.64389 -177.355,-44.0593 C-177.355,-100.611 -97.9507,-146.455 1.21341e-13,-146.455 C97.9507,-146.455 177.355,-100.611 177.355,-44.0593 "/>
   </g>
   <g fill="none" font-weight="400" stroke-linecap="square" font-style="normal" stroke-opacity="1" stroke-width="1" font-family="MS Shell Dlg 2" stroke-linejoin="bevel" font-size="29.1042" stroke="#000000" transform="matrix(1,0,0,1,370.282,1786.35)">
    <rect height="0" width="0" x="0" y="0"/>
   </g>
   <g fill="#ffffff" fill-opacity="1" font-weight="400" font-style="normal" font-family="MS Shell Dlg 2" font-size="29.1042" stroke="none" transform="matrix(1,0,0,1,370.282,1786.35)">
    <path vector-effect="non-scaling-stroke" fill-rule="evenodd" d="M171.355,-44.0593 C171.355,-30.8467 166.771,-17.7679 157.874,-5.59483 C149.273,6.17173 136.808,16.8656 121.167,25.8963 C80.8412,49.1781 23.0966,59.3517 -32.8728,53.0353 C-88.8422,46.7188 -135.701,24.7402 -157.874,-5.59483 C-166.771,-17.7679 -171.355,-30.8467 -171.355,-44.0593 C-171.355,-98.698 -94.637,-142.991 1.18081e-13,-142.991 C94.637,-142.991 171.355,-98.698 171.355,-44.0593 "/>
   </g>
   <g fill="none" font-weight="400" stroke-linecap="square" font-style="normal" stroke-opacity="1" stroke-width="1" font-family="MS Shell Dlg 2" stroke-linejoin="bevel" font-size="29.1042" stroke="#000000" transform="matrix(1,0,0,1,370.282,1786.35)">
    <rect height="0" width="0" x="0" y="0"/>
   </g>
   <g fill="#ffffff" fill-opacity="1" font-weight="400" font-style="normal" font-family="MS Shell Dlg 2" font-size="29.1042" stroke="none" transform="matrix(1,0,0,1,370.282,1786.35)">
    <path vector-effect="non-scaling-stroke" fill-rule="evenodd" d="M157.874,-5.59483 C149.273,6.17173 136.808,16.8656 121.167,25.8963 C80.8412,49.1781 23.0966,59.3517 -32.8728,53.0353 C-88.8422,46.7188 -135.701,24.7402 -157.874,-5.59483 C-131.088,-42.2412 -68.8937,-66.0625 6.52349e-14,-66.0625 C68.8937,-66.0625 131.088,-42.2412 157.874,-5.59483 "/>
   </g>
   <g fill="none" font-weight="400" stroke-linecap="square" font-style="normal" stroke-opacity="1" stroke-width="1" font-family="MS Shell Dlg 2" stroke-linejoin="bevel" font-size="29.1042" stroke="#000000" transform="matrix(1,0,0,1,370.282,1786.35)">
    <rect height="0" width="0" x="0" y="0"/>
   </g>
   <g fill="#ffffff" fill-opacity="1" font-weight="400" font-style="normal" font-family="MS Shell Dlg 2" font-size="29.1042" stroke="none" transform="matrix(1,0,0,1,370.282,1786.35)">
    <path vector-effect="non-scaling-stroke" fill-rule="evenodd" d="M125.409,116.464 L125.409,28.3458 C74.6859,57.6309 -1.5978,66.3915 -67.871,50.5425 C-134.144,34.6935 -177.355,-2.64389 -177.355,-44.0593 L-177.355,44.0593 C-177.355,85.4747 -134.144,122.812 -67.871,138.661 C-1.5978,154.51 74.6859,145.749 125.409,116.464 "/>
   </g>
   <g fill="none" font-weight="400" stroke-linecap="square" font-style="normal" stroke-opacity="1" stroke-width="1" font-family="MS Shell Dlg 2" stroke-linejoin="bevel" font-size="29.1042" stroke="#000000" transform="matrix(1,0,0,1,370.282,1786.35)">
    <rect height="0" width="0" x="0" y="0"/>
   </g>
   <g fill="#ffffff" fill-opacity="1" font-weight="400" font-style="normal" font-family="MS Shell Dlg 2" font-size="29.1042" stroke="none" transform="matrix(1,0,0,1,370.282,1786.35)">
    <path vector-effect="non-scaling-stroke" fill-rule="evenodd" d="M-157.874,-5.59483 C-166.771,-17.7679 -171.355,-30.8467 -171.355,-44.0593 C-171.355,-98.698 -94.637,-142.991 1.18081e-13,-142.991 C94.637,-142.991 171.355,-98.698 171.355,-44.0593 C171.355,-30.8467 166.771,-17.7679 157.874,-5.59483 C131.088,-42.2412 68.8937,-66.0625 2.71863e-14,-66.0625 C-68.8937,-66.0625 -131.088,-42.2412 -157.874,-5.59483 "/>
   </g>
   <g fill="none" font-weight="400" stroke-linecap="square" font-style="normal" stroke-opacity="1" stroke-width="1" font-family="MS Shell Dlg 2" stroke-linejoin="bevel" font-size="29.1042" stroke="#000000" transform="matrix(1,0,0,1,370.282,1786.35)">
    <rect height="0" width="0" x="0" y="0"/>
   </g>
   <g fill="#ffffff" fill-opacity="1" font-weight="400" font-style="normal" font-family="MS Shell Dlg 2" font-size="29.1042" stroke="none" transform="matrix(1,0,0,1,370.282,1786.35)">
    <path vector-effect="non-scaling-stroke" fill-rule="evenodd" d="M177.355,44.0593 L177.355,-44.0593 C177.355,-16.9021 158.67,9.14275 125.409,28.3458 L125.409,116.464 C158.67,97.2613 177.355,71.2164 177.355,44.0593 "/>
   </g>
   <g fill="none" font-weight="400" stroke-linecap="square" font-style="normal" stroke-opacity="1" stroke-width="1" font-family="MS Shell Dlg 2" stroke-linejoin="bevel" font-size="29.1042" stroke="#000000" transform="matrix(1,0,0,1,370.282,1786.35)">
    <rect height="0" width="0" x="0" y="0"/>
   </g>
   <g fill="none" font-weight="400" stroke-linecap="round" font-style="normal" stroke-opacity="1" stroke-width="7" font-family="MS Shell Dlg 2" stroke-linejoin="bevel" font-size="29.1042" stroke="#000000" transform="matrix(1,0,0,1,370.282,1786.35)">
    <path vector-effect="none" fill-rule="evenodd" d="M125.409,116.464 C74.6859,145.749 -1.5978,154.51 -67.871,138.661 C-134.144,122.812 -177.355,85.4747 -177.355,44.0593 "/>
   </g>
   <g fill="none" font-weight="400" stroke-linecap="round" font-style="normal" stroke-opacity="1" stroke-width="7" font-family="MS Shell Dlg 2" stroke-linejoin="bevel" font-size="29.1042" stroke="#000000" transform="matrix(1,0,0,1,370.282,1786.35)">
    <path vector-effect="none" fill-rule="evenodd" d="M177.355,44.0593 C177.355,71.2164 158.67,97.2613 125.409,116.464 "/>
   </g>
   <g fill="none" font-weight="400" stroke-linecap="round" font-style="normal" stroke-opacity="1" stroke-width="7" font-family="MS Shell Dlg 2" stroke-linejoin="bevel" font-size="29.1042" stroke="#000000" transform="matrix(1,0,0,1,370.282,1786.35)">
    <path vector-effect="none" fill-rule="evenodd" d="M125.409,28.3458 C74.6859,57.6309 -1.5978,66.3915 -67.871,50.5425 C-134.144,34.6935 -177.355,-2.64389 -177.355,-44.0593 "/>
   </g>
   <g fill="none" font-weight="400" stroke-linecap="round" font-style="normal" stroke-opacity="1" stroke-width="7" font-family="MS Shell Dlg 2" stroke-linejoin="bevel" font-size="29.1042" stroke="#000000" transform="matrix(1,0,0,1,370.282,1786.35)">
    <path vector-effect="none" fill-rule="evenodd" d="M-177.355,-44.0593 C-177.355,-100.611 -97.9507,-146.455 1.21341e-13,-146.455 C97.9507,-146.455 177.355,-100.611 177.355,-44.0593 "/>
   </g>
   <g fill="none" font-weight="400" stroke-linecap="round" font-style="normal" stroke-opacity="1" stroke-width="7" font-family="MS Shell Dlg 2" stroke-linejoin="bevel" font-size="29.1042" stroke="#000000" transform="matrix(1,0,0,1,370.282,1786.35)">
    <path vector-effect="none" fill-rule="evenodd" d="M177.355,-44.0593 C177.355,-16.9021 158.67,9.14275 125.409,28.3458 "/>
   </g>
   <g fill="none" font-weight="400" stroke-linecap="round" font-style="normal" stroke-opacity="1" stroke-width="7" font-family="MS Shell Dlg 2" stroke-linejoin="bevel" font-size="29.1042" stroke="#000000" transform="matrix(1,0,0,1,370.282,1786.35)">
    <path vector-effect="none" fill-rule="evenodd" d="M121.167,25.8963 C72.1593,54.1907 -1.54375,62.6549 -65.5749,47.3421 C-129.606,32.0292 -171.355,-4.04498 -171.355,-44.0593 "/>
   </g>
   <g fill="none" font-weight="400" stroke-linecap="round" font-style="normal" stroke-opacity="1" stroke-width="7" font-family="MS Shell Dlg 2" stroke-linejoin="bevel" font-size="29.1042" stroke="#000000" transform="matrix(1,0,0,1,370.282,1786.35)">
    <path vector-effect="none" fill-rule="evenodd" d="M-171.355,-44.0593 C-171.355,-98.698 -94.637,-142.991 1.18081e-13,-142.991 C94.637,-142.991 171.355,-98.698 171.355,-44.0593 "/>
   </g>
   <g fill="none" font-weight="400" stroke-linecap="round" font-style="normal" stroke-opacity="1" stroke-width="7" font-family="MS Shell Dlg 2" stroke-linejoin="bevel" font-size="29.1042" stroke="#000000" transform="matrix(1,0,0,1,370.282,1786.35)">
    <path vector-effect="none" fill-rule="evenodd" d="M171.355,-44.0593 C171.355,-17.8209 153.302,7.34291 121.167,25.8963 "/>
   </g>
   <g fill="none" font-weight="400" stroke-linecap="round" font-style="normal" stroke-opacity="1" stroke-width="7" font-family="MS Shell Dlg 2" stroke-linejoin="bevel" font-size="29.1042" stroke="#000000" transform="matrix(1,0,0,1,370.282,1786.35)">
    <path vector-effect="none" fill-rule="evenodd" d="M-157.874,-5.59483 C-131.088,-42.2412 -68.8937,-66.0625 6.52349e-14,-66.0625 C68.8937,-66.0625 131.088,-42.2412 157.874,-5.59483 "/>
   </g>
   <g fill="none" font-weight="400" stroke-linecap="round" font-style="normal" stroke-opacity="1" stroke-width="7" font-family="MS Shell Dlg 2" stroke-linejoin="bevel" font-size="29.1042" stroke="#000000" transform="matrix(1,0,0,1,370.282,1786.35)">
    <path vector-effect="none" fill-rule="evenodd" d="M177.355,44.0593 L177.355,-44.0593"/>
   </g>
   <g fill="none" font-weight="400" stroke-linecap="round" font-style="normal" stroke-opacity="1" stroke-width="7" font-family="MS Shell Dlg 2" stroke-linejoin="bevel" font-size="29.1042" stroke="#000000" transform="matrix(1,0,0,1,370.282,1786.35)">
    <path vector-effect="none" fill-rule="evenodd" d="M-177.355,44.0593 L-177.355,-44.0593"/>
   </g>
   <g fill="none" font-weight="400" stroke-linecap="round" font-style="normal" stroke-opacity="1" stroke-width="7" font-family="MS Shell Dlg 2" stroke-linejoin="bevel" font-size="29.1042" stroke="#000000" transform="matrix(1,0,0,1,370.282,1786.35)">
    <path vector-effect="none" fill-rule="evenodd" d="M125.409,116.464 L125.409,28.3458"/>
   </g>
  </g>
 </g>
</svg>
